# xmcd
#
# Track frame offsets:
#	150
#	12321
#	23942
#	38879
#	52156
#	71081
#	90633
#	102802
#	117059
#	135885
#
# Disc length: 2047 seconds
#
# Revision: 1
# Processed by: cddbd v1.4PL0 Copyright (c) Steve Scherf et al.
# Submitted via: audiograbber 1.80.04
#
DISCID=7d07fd0a
DTITLE=G. L. Williams and The Perfect Ride - Yankee Born/Rebel Bred
DYEAR=1900
DGENRE=Country
TTITLE0=Set 'em Up
TTITLE1=Buck 'em Hard
TTITLE2=This Tear's for You
TTITLE3=Cowboy Up
TTITLE4=I'm Gone
TTITLE5=Tell Me Hank
TTITLE6=Gonna Get Drunk
TTITLE7=Bad Boy Blues
TTITLE8=Sands of Time
TTITLE9=Yankee Born/Rebel Bred
EXTD=
EXTT0=
EXTT1=
EXTT2=
EXTT3=
EXTT4=
EXTT5=
EXTT6=
EXTT7=
EXTT8=
EXTT9=
PLAYORDER=
